<?xml version="1.0" encoding="UTF-8"?>
<svg version="1.1" xmlns="http://www.w3.org/2000/svg" width="225" height="225">
<path d="M0 0 C74.25 0 148.5 0 225 0 C225 74.25 225 148.5 225 225 C150.75 225 76.5 225 0 225 C0 150.75 0 76.5 0 0 Z " fill="#042D27" transform="translate(0,0)"/>
<path d="M0 0 C7.05317695 5.18084038 13.28537853 12.4023162 15.046875 21.1796875 C15.29727319 23.07937509 15.45332592 24.99109414 15.58984375 26.90234375 C16.20730469 26.98871094 16.82476562 27.07507813 17.4609375 27.1640625 C27.45673657 28.82242186 34.38017296 32.59283375 40.859375 40.46875 C46.91089868 48.97913206 47.69687902 57.62273049 46.58984375 67.90234375 C45.71538078 71.2724651 44.44465174 73.96700898 42.58984375 76.90234375 C42.16574219 77.5984375 41.74164063 78.29453125 41.3046875 79.01171875 C36.73589364 85.78218764 30.29562337 90.26036217 22.58984375 92.90234375 C20.25776355 92.9788054 17.92138497 92.99377674 15.58984375 92.90234375 C15.491875 93.53140625 15.39390625 94.16046875 15.29296875 94.80859375 C13.71759963 103.82622389 10.61972582 111.73679145 3.58984375 117.90234375 C-5.93055374 124.11860329 -14.08248911 125.85866285 -25.41015625 124.90234375 C-28.73817079 124.0158863 -31.47738161 122.69211687 -34.41015625 120.90234375 C-35.10882813 120.47824219 -35.8075 120.05414063 -36.52734375 119.6171875 C-45.97035937 113.22088069 -49.30571267 104.81222231 -51.41015625 93.90234375 C-52.01601562 93.82757813 -52.621875 93.7528125 -53.24609375 93.67578125 C-62.54805498 92.21608887 -70.29595982 88.26283267 -76.1640625 80.765625 C-82.18593985 71.76112501 -83.21593157 63.68104846 -82.41015625 52.90234375 C-80.38333757 43.56865008 -74.21065649 36.18648663 -66.34765625 30.96484375 C-61.51377298 28.21076487 -56.99115086 26.90234375 -51.41015625 26.90234375 C-51.33539063 26.29648438 -51.260625 25.690625 -51.18359375 25.06640625 C-49.64733659 15.2765322 -45.32241124 7.56212158 -37.51171875 1.375 C-26.34481924 -6.45013218 -11.81279337 -6.88674511 0 0 Z " fill="#9F785C" transform="translate(129.41015625,50.09765625)"/>
<path d="M0 0 C3.76207193 0.36703141 6.40886256 1.11939724 9.5625 3.125 C12.73177077 5.22509093 12.73177077 5.22509093 15.625 4.9375 C18.08520478 4.05992362 18.08520478 4.05992362 20.375 2.4375 C23.72573169 0.6025755 26.23884737 0.77875573 30 1 C33.24900602 5.97504047 34.49940808 8.88225104 34 15 C34.825 14.9175 35.65 14.835 36.5 14.75 C40.95959896 15.06854278 45.74412826 16.74412826 49 20 C49.0482539 24.67097736 48.56848939 28.1558794 45.9375 32.0625 C45.298125 32.701875 44.65875 33.34125 44 34 C44.268125 34.53625 44.53625 35.0725 44.8125 35.625 C45.204375 36.40875 45.59625 37.1925 46 38 C46.53625 38.94875 47.0725 39.8975 47.625 40.875 C49.1857183 44.42208704 49.88900273 46.2015338 49 50 C44.95888257 53.7118412 40.47382575 55.58946307 35 56 C34.90203125 56.59167969 34.8040625 57.18335938 34.703125 57.79296875 C33.76773356 62.73602871 32.96831672 66.58283838 29 70 C24.96076734 70.79028465 23.38389993 70.23801796 19.875 68.0625 C18.92625 67.381875 17.9775 66.70125 17 66 C15.02895838 64.85912001 15.02895838 64.85912001 13 65 C12.278125 65.61875 11.55625 66.2375 10.8125 66.875 C7.01191642 69.74655204 3.6527652 69.79726513 -1 70 C-4.06242216 65.15939723 -5.53411505 61.70709064 -6 56 C-6.59167969 55.90203125 -7.18335937 55.8040625 -7.79296875 55.703125 C-12.73602871 54.76773356 -16.58283838 53.96831672 -20 50 C-20.74381121 46.72723066 -20.51770207 44.87068075 -18.796875 41.9765625 C-17.86707593 40.60229904 -16.90161712 39.25133685 -15.8984375 37.9296875 C-14.7243761 36.00181203 -14.7243761 36.00181203 -15.75 33.9375 C-16.36875 32.9784375 -16.36875 32.9784375 -17 32 C-19.34490356 27.85132446 -20.93920581 24.80038523 -20 20 C-15.76559075 16.18903167 -11.43052198 15.12355627 -6 14 C-5.85304688 13.11248047 -5.85304688 13.11248047 -5.703125 12.20703125 C-4.74230199 7.12957861 -3.7014799 3.82486256 0 0 Z " fill="#052D27" transform="translate(97,75)"/>
<path d="M0 0 C7.05317695 5.18084038 13.28537853 12.4023162 15.046875 21.1796875 C15.29727319 23.07937509 15.45332592 24.99109414 15.58984375 26.90234375 C16.20730469 26.98871094 16.82476562 27.07507813 17.4609375 27.1640625 C27.45673657 28.82242186 34.38017296 32.59283375 40.859375 40.46875 C46.91089868 48.97913206 47.69687902 57.62273049 46.58984375 67.90234375 C45.71538078 71.2724651 44.44465174 73.96700898 42.58984375 76.90234375 C42.16574219 77.5984375 41.74164063 78.29453125 41.3046875 79.01171875 C36.73589364 85.78218764 30.29562337 90.26036217 22.58984375 92.90234375 C20.25776355 92.9788054 17.92138497 92.99377674 15.58984375 92.90234375 C15.491875 93.53140625 15.39390625 94.16046875 15.29296875 94.80859375 C13.71759963 103.82622389 10.61972582 111.73679145 3.58984375 117.90234375 C-5.93055374 124.11860329 -14.08248911 125.85866285 -25.41015625 124.90234375 C-28.73817079 124.0158863 -31.47738161 122.69211687 -34.41015625 120.90234375 C-35.10882813 120.47824219 -35.8075 120.05414063 -36.52734375 119.6171875 C-45.97035937 113.22088069 -49.30571267 104.81222231 -51.41015625 93.90234375 C-52.01601562 93.82757813 -52.621875 93.7528125 -53.24609375 93.67578125 C-62.54805498 92.21608887 -70.29595982 88.26283267 -76.1640625 80.765625 C-82.18593985 71.76112501 -83.21593157 63.68104846 -82.41015625 52.90234375 C-80.38333757 43.56865008 -74.21065649 36.18648663 -66.34765625 30.96484375 C-61.51377298 28.21076487 -56.99115086 26.90234375 -51.41015625 26.90234375 C-51.33539063 26.29648438 -51.260625 25.690625 -51.18359375 25.06640625 C-49.64733659 15.2765322 -45.32241124 7.56212158 -37.51171875 1.375 C-26.34481924 -6.45013218 -11.81279337 -6.88674511 0 0 Z M-3.61328125 8.43359375 C-8.87026981 9.89580249 -11.91390741 11.72940159 -15.41015625 15.90234375 C-13.78688755 16.57321495 -12.16148047 17.23891404 -10.53515625 17.90234375 C-9.63023438 18.27359375 -8.7253125 18.64484375 -7.79296875 19.02734375 C-5.52031767 20.01724601 -5.52031767 20.01724601 -3.41015625 19.90234375 C-3.41015625 20.56234375 -3.41015625 21.22234375 -3.41015625 21.90234375 C-4.00441406 21.68578125 -4.59867187 21.46921875 -5.2109375 21.24609375 C-12.59124951 18.76685986 -20.21205 17.09139596 -27.59765625 20.27734375 C-28.19578125 20.81359375 -28.79390625 21.34984375 -29.41015625 21.90234375 C-29.41015625 22.56234375 -29.41015625 23.22234375 -29.41015625 23.90234375 C-30.17328125 24.33546875 -30.93640625 24.76859375 -31.72265625 25.21484375 C-34.85303429 27.18042996 -35.88828781 28.55423319 -37.41015625 31.90234375 C-38.12938833 35.59758327 -38.12938833 35.59758327 -38.41015625 38.90234375 C-39.07402344 39.08410156 -39.73789063 39.26585938 -40.421875 39.453125 C-48.65460709 41.40208302 -48.65460709 41.40208302 -54.53515625 46.90234375 C-54.82390625 47.56234375 -55.11265625 48.22234375 -55.41015625 48.90234375 C-55.92578125 49.39734375 -56.44140625 49.89234375 -56.97265625 50.40234375 C-60.02075481 53.58296833 -59.61745508 57.64698944 -59.578125 61.87890625 C-59.3413935 64.73069496 -58.38366919 67.22518316 -57.41015625 69.90234375 C-57.41015625 71.22234375 -57.41015625 72.54234375 -57.41015625 73.90234375 C-59.71135131 70.34595139 -61.18488596 66.95516087 -62.41015625 62.90234375 C-67.50603775 67.08824641 -69.68432383 72.81755594 -71.16015625 79.08984375 C-70.12421128 82.9746374 -68.24068684 84.34818924 -64.98046875 86.5859375 C-61.1269209 88.55956307 -57.17821113 89.42662658 -52.94921875 90.26171875 C-50.41015625 90.90234375 -50.41015625 90.90234375 -48.41015625 92.90234375 C-47.94026488 94.7647181 -47.5322559 96.64299294 -47.16015625 98.52734375 C-45.10478174 107.1516539 -40.64989646 112.79193889 -33.41015625 117.90234375 C-26.6608068 122.01122914 -20.22189766 123.0155169 -12.41015625 121.90234375 C-3.42427735 119.41360768 3.16990032 115.44747396 8.0859375 107.4765625 C10.71933178 102.56039584 12.01611868 98.41010445 12.58984375 92.90234375 C14.99782379 90.49436371 16.49328336 90.29739929 19.77734375 89.52734375 C28.54477033 87.20689056 34.33992656 83.42635873 39.58984375 75.90234375 C43.84116845 68.36249435 44.77526221 60.95679507 43.1171875 52.48828125 C40.8474158 44.57805893 36.61427965 38.89706947 29.65234375 34.52734375 C24.26655256 31.546936 19.82100986 29.90234375 13.58984375 29.90234375 C13.44289063 29.15210937 13.2959375 28.401875 13.14453125 27.62890625 C11.55297467 20.36628598 9.58505684 13.59541749 4.58984375 7.90234375 C1.33138155 6.96101023 -0.40005975 7.65877438 -3.61328125 8.43359375 Z " fill="#9E785D" transform="translate(129.41015625,50.09765625)"/>
<path d="M0 0 C7.05317695 5.18084038 13.28537853 12.4023162 15.046875 21.1796875 C15.29727319 23.07937509 15.45332592 24.99109414 15.58984375 26.90234375 C16.20730469 26.98871094 16.82476562 27.07507813 17.4609375 27.1640625 C27.45673657 28.82242186 34.38017296 32.59283375 40.859375 40.46875 C46.91089868 48.97913206 47.69687902 57.62273049 46.58984375 67.90234375 C45.71538078 71.2724651 44.44465174 73.96700898 42.58984375 76.90234375 C42.16574219 77.5984375 41.74164063 78.29453125 41.3046875 79.01171875 C36.73589364 85.78218764 30.29562337 90.26036217 22.58984375 92.90234375 C20.25776355 92.9788054 17.92138497 92.99377674 15.58984375 92.90234375 C15.491875 93.53140625 15.39390625 94.16046875 15.29296875 94.80859375 C13.71759963 103.82622389 10.61972582 111.73679145 3.58984375 117.90234375 C-5.93055374 124.11860329 -14.08248911 125.85866285 -25.41015625 124.90234375 C-28.73817079 124.0158863 -31.47738161 122.69211687 -34.41015625 120.90234375 C-35.10882813 120.47824219 -35.8075 120.05414063 -36.52734375 119.6171875 C-45.97035937 113.22088069 -49.30571267 104.81222231 -51.41015625 93.90234375 C-52.01601562 93.82757813 -52.621875 93.7528125 -53.24609375 93.67578125 C-62.54805498 92.21608887 -70.29595982 88.26283267 -76.1640625 80.765625 C-82.18593985 71.76112501 -83.21593157 63.68104846 -82.41015625 52.90234375 C-80.38333757 43.56865008 -74.21065649 36.18648663 -66.34765625 30.96484375 C-61.51377298 28.21076487 -56.99115086 26.90234375 -51.41015625 26.90234375 C-51.33539063 26.29648438 -51.260625 25.690625 -51.18359375 25.06640625 C-49.64733659 15.2765322 -45.32241124 7.56212158 -37.51171875 1.375 C-26.34481924 -6.45013218 -11.81279337 -6.88674511 0 0 Z M-41.96875 10.8671875 C-45.96243892 16.31660956 -47.60122915 21.2217217 -48.41015625 27.90234375 C-48.94382812 28.06089844 -49.4775 28.21945313 -50.02734375 28.3828125 C-61.17807084 31.87464918 -71.11617181 36.27651969 -76.78515625 47.02734375 C-78.11207007 49.99872341 -79.09939338 52.63933364 -79.41015625 55.90234375 C-79.48492187 56.59714844 -79.5596875 57.29195312 -79.63671875 58.0078125 C-80.12996826 66.17238987 -77.66887171 73.49675027 -72.80078125 80.078125 C-67.06462525 86.22212695 -60.46969447 89.01412991 -52.29296875 90.41015625 C-50.41015625 90.90234375 -50.41015625 90.90234375 -48.41015625 92.90234375 C-47.94026488 94.7647181 -47.5322559 96.64299294 -47.16015625 98.52734375 C-45.10478174 107.1516539 -40.64989646 112.79193889 -33.41015625 117.90234375 C-26.6608068 122.01122914 -20.22189766 123.0155169 -12.41015625 121.90234375 C-3.42427735 119.41360768 3.16990032 115.44747396 8.0859375 107.4765625 C10.71933178 102.56039584 12.01611868 98.41010445 12.58984375 92.90234375 C14.99782379 90.49436371 16.49328336 90.29739929 19.77734375 89.52734375 C28.54477033 87.20689056 34.33992656 83.42635873 39.58984375 75.90234375 C43.84116845 68.36249435 44.77526221 60.95679507 43.1171875 52.48828125 C40.8474158 44.57805893 36.61427965 38.89706947 29.65234375 34.52734375 C24.26655256 31.546936 19.82100986 29.90234375 13.58984375 29.90234375 C13.44289063 29.15210937 13.2959375 28.401875 13.14453125 27.62890625 C10.92988503 17.52299187 7.51855696 8.97933766 -1.36328125 3.0859375 C-15.86400576 -5.29902343 -31.63143869 -2.16456084 -41.96875 10.8671875 Z " fill="#EBEDED" transform="translate(129.41015625,50.09765625)"/>
<path d="M0 0 C0.33 0 0.66 0 1 0 C1.14695312 0.88751953 1.14695312 0.88751953 1.296875 1.79296875 C2.25769801 6.87042139 3.2985201 10.17513744 7 14 C5.9936344 16.70944584 4.98384605 19.02423092 3.375 21.4375 C1.6829611 24.59084523 1.4630005 26.47114617 2 30 C4.81214832 33.42348491 8.91450832 33.79419631 13.07421875 34.5703125 C15 35 15 35 16 36 C16.53436584 38.21380133 16.96284612 40.44136053 17.40234375 42.67578125 C18.00057484 45.0022355 18.85062657 46.89842599 20 49 C26.09488953 48.73442747 29.2623182 48.06087011 34 44 C36.9777493 44 38.30044911 45.21168005 40.75 46.9375 C44.57061033 49.36211809 47.59758256 50.08915501 52 51 C47.42864589 55.57135411 40.90979068 56.2134917 34.6875 56.3125 C30.75974615 56.29709704 28.44792034 55.78438764 25 54 C23.68 54 22.36 54 21 54 C22.0725 54.598125 23.145 55.19625 24.25 55.8125 C26.98958993 57.37401069 29.53256878 59.02605503 32 61 C26.82615314 64.78574161 22.23536194 66.41763485 15.875 67.5625 C13 67 13 67 10.3125 64.25 C7.60505712 60.02395935 6.67162024 55.44344375 5.67578125 50.57421875 C5.19395733 47.85769922 5.19395733 47.85769922 3 46 C1.13762565 45.53010863 -0.74064919 45.12209965 -2.625 44.75 C-8.26373943 43.37602489 -13.44298104 41.85914197 -17 37 C-18.25623457 31.04410217 -15.16690728 25.75862267 -12.25390625 20.75 C-11 19 -11 19 -9 18 C-8.72285156 18.71027344 -8.44570312 19.42054687 -8.16015625 20.15234375 C-7.79792969 21.07144531 -7.43570313 21.99054688 -7.0625 22.9375 C-6.70285156 23.85402344 -6.34320313 24.77054688 -5.97265625 25.71484375 C-5.2003782 27.92418533 -5.2003782 27.92418533 -4 29 C-4.60524025 25.02399531 -4.60524025 25.02399531 -5.5625 21.125 C-6.92735938 14.49568301 -5.95286331 9.90572661 -3 4 C-2.34 4 -1.68 4 -1 4 C-0.67 2.68 -0.34 1.36 0 0 Z " fill="#A47C61" transform="translate(76,95)"/>
<path d="M0 0 C3.65353589 0.93281767 4.10450839 1.89461388 6.125 5 C9.20753728 10.64727302 10.70712284 16.46860079 11.9375 22.75 C13.236875 22.811875 14.53625 22.87375 15.875 22.9375 C22.07732009 23.60483824 27.52533077 26.33783077 31.9375 30.75 C32.6823881 36.8332528 30.94709384 41.55618588 27.9375 46.75 C26.30078125 48.515625 26.30078125 48.515625 24.9375 49.75 C24.09930842 48.12750059 23.2670884 46.50191503 22.4375 44.875 C21.9734375 43.97007813 21.509375 43.06515625 21.03125 42.1328125 C19.9375 39.75 19.9375 39.75 19.9375 37.75 C19.2775 37.75 18.6175 37.75 17.9375 37.75 C18.4325 40.225 18.4325 40.225 18.9375 42.75 C16.9575 43.245 16.9575 43.245 14.9375 43.75 C14.751875 42.656875 14.56625 41.56375 14.375 40.4375 C13.28173152 36.49699142 13.28173152 36.49699142 9.6875 34.875 C6.4156406 33.89344218 3.32416476 33.1630079 -0.0625 32.75 C-0.18367188 32.14671875 -0.30484375 31.5434375 -0.4296875 30.921875 C-0.59726563 30.12265625 -0.76484375 29.3234375 -0.9375 28.5 C-1.18113281 27.31664062 -1.18113281 27.31664062 -1.4296875 26.109375 C-2.05400075 23.78168856 -2.91088542 21.85968048 -4.0625 19.75 C-8.34818968 19.40014778 -11.13523631 19.53566833 -14.75 21.8125 C-18.0625 23.75 -18.0625 23.75 -19.97265625 23.5 C-22.30781385 22.66196213 -24.55487329 21.71671218 -26.8125 20.6875 C-27.61171875 20.32527344 -28.4109375 19.96304688 -29.234375 19.58984375 C-29.83765625 19.31269531 -30.4409375 19.03554687 -31.0625 18.75 C-30.8125 16.375 -30.8125 16.375 -30.0625 13.75 C-25.4950775 10.72227422 -20.32074667 11.27323388 -15.0625 11.75 C-11.64223483 12.53579797 -8.35842704 13.54888125 -5.0625 14.75 C-5.0625 14.09 -5.0625 13.43 -5.0625 12.75 C-5.98482422 12.45996094 -5.98482422 12.45996094 -6.92578125 12.1640625 C-7.73402344 11.90367188 -8.54226562 11.64328125 -9.375 11.375 C-10.17550781 11.11976562 -10.97601563 10.86453125 -11.80078125 10.6015625 C-14.0625 9.75 -14.0625 9.75 -17.0625 7.75 C-11.44504645 3.39360745 -6.90549336 1.69114123 0 0 Z " fill="#9F785E" transform="translate(131.0625,57.25)"/>
<path d="M0 0 C-0.47050781 0.75023437 -0.94101563 1.50046875 -1.42578125 2.2734375 C-5.81293843 9.47576269 -5.81293843 9.47576269 -8.125 17.5 C-8.75 19.953125 -8.75 19.953125 -10 22 C-13.15914149 23.48982241 -16.21438419 24.27081961 -19.61328125 25.0625 C-24.45497081 26.40276009 -28.06750097 28.95155114 -32 32 C-32.73238266 23.39450379 -29.02113037 16.51635776 -23.76953125 9.85546875 C-17.15610485 2.92086049 -9.54267648 -0.38170706 0 0 Z " fill="#082D27" transform="translate(88,55)"/>
<path d="M0 0 C0.75023437 0.48210937 1.50046875 0.96421875 2.2734375 1.4609375 C8.78913578 5.48196037 14.35427023 8.17114876 22 9 C22.2475 9.94875 22.495 10.8975 22.75 11.875 C24.66554128 18.55901639 27.12917344 25.19376017 31 31 C23.71101093 31.99395306 18.05344221 28.86564924 12 25 C4.76651296 18.72236661 0.78415088 11.18675727 0.078125 1.6875 C0.05234375 1.130625 0.0265625 0.57375 0 0 Z " fill="#092F29" transform="translate(56,134)"/>
<path d="M0 0 C9.74769906 0.47166286 17.77416501 3.69654863 24.46484375 10.98828125 C29.46544977 17.54123825 31.6045582 23.82753614 32 32 C31.50113281 31.61328125 31.00226563 31.2265625 30.48828125 30.828125 C25.74554508 27.38815119 21.94317394 25.652298 16.1875 24.4375 C12.8203125 23.5078125 12.8203125 23.5078125 10 22 C8.29115451 18.80366206 7.57910718 15.8911843 6.83203125 12.3515625 C5.62206627 7.47761905 3.04181984 3.92394759 0 0 Z " fill="#082D27" transform="translate(135,55)"/>
<path d="M0 0 C1.86434618 3.72869237 -0.29331995 7.743899 -1.5 11.52734375 C-5.22250591 20.14533269 -12.25055627 26.05156732 -20.4375 30.25 C-23.68026865 31.19910302 -26.63652 31.04720674 -30 31 C-29.51789063 30.0821875 -29.03578125 29.164375 -28.5390625 28.21875 C-25.2721681 21.90510465 -22.27089677 16.0605376 -21 9 C-20.443125 8.90203125 -19.88625 8.8040625 -19.3125 8.703125 C-12.03694893 7.27751026 -5.74725298 4.78937748 0 0 Z " fill="#082E28" transform="translate(166,134)"/>
<path d="M0 0 C0.54527344 0.32613281 1.09054688 0.65226563 1.65234375 0.98828125 C6.95169541 4.0591876 12.12111354 6.29053656 18 8 C18 8.66 18 9.32 18 10 C10.02010295 13.96165102 2.96408868 16.52730213 -6 15 C-9.85155865 13.63620023 -13.42404536 11.97099862 -17 10 C-17 9.34 -17 8.68 -17 8 C-16.10796875 7.67386719 -15.2159375 7.34773437 -14.296875 7.01171875 C-12.54117188 6.35623047 -12.54117188 6.35623047 -10.75 5.6875 C-9.58984375 5.25824219 -8.4296875 4.82898438 -7.234375 4.38671875 C-4.4058701 3.17401435 -2.33463456 1.97057026 0 0 Z " fill="#0B302A" transform="translate(111,157)"/>
<path d="M0 0 C5.10614048 4.04969762 6.50044305 9.37278212 7.359375 15.609375 C7.7575933 23.26401558 5.32373355 29.19821669 2 36 C1.34 36 0.68 36 0 36 C-0.17015625 35.34773438 -0.3403125 34.69546875 -0.515625 34.0234375 C-2.14722484 28.01511617 -2.14722484 28.01511617 -5.25 22.6875 C-7 20 -7 20 -6.765625 17.609375 C-5.98083985 14.93469908 -4.95329837 12.93255925 -3.5 10.5625 C-1.44930222 7.02844446 -0.3182263 4.13694193 0 0 Z " fill="#082E28" transform="translate(166,92)"/>
<path d="M0 0 C2.04766176 2.04766176 2.52382983 3.08641916 3.4375 5.75 C4.32428991 8.2285778 5.23464619 10.45909037 6.4375 12.8125 C8.68528013 17.39797147 10.31224756 22.18519354 12 27 C5.1778868 26.5127062 -0.30735207 24.93411303 -5.73046875 20.625 C-7.38306383 18.5096783 -7.30280707 17.51509916 -7 14.875 C-6.23192317 9.55083109 -3.86539928 3.86539928 0 0 Z " fill="#092E28" transform="translate(66,113)"/>
<path d="M0 0 C1.79296875 1.0703125 1.79296875 1.0703125 2.79296875 3.0703125 C2.06851563 3.31265625 1.3440625 3.555 0.59765625 3.8046875 C-4.87617736 5.70228315 -9.57939072 7.56831426 -14.20703125 11.0703125 C-16.19049462 10.08298851 -18.16953102 9.08974582 -20.13671875 8.0703125 C-24.08729019 6.03949666 -27.9354716 4.35178039 -32.20703125 3.0703125 C-22.74996233 -5.03574657 -11.1717756 -4.9206842 0 0 Z " fill="#092F28" transform="translate(126.20703125,51.9296875)"/>
<path d="M0 0 C0.81282889 6.17749956 -1.9343054 10.83476909 -5 16 C-7 18 -7 18 -10.375 18.5 C-16.53682673 18.40905053 -21.75670172 14.93624704 -27 12 C-25.59578872 9.19157743 -23.96871294 9.06741824 -21.0625 8 C-17.16740943 6.58729571 -17.16740943 6.58729571 -14 4 C-11.9765625 3.4375 -11.9765625 3.4375 -9.625 3 C-6.52506373 2.41940993 -2.92104899 0 0 0 Z " fill="#092E28" transform="translate(141,144)"/>
<path d="M0 0 C3.70264913 0.94535722 4.19836951 2.03678175 6.25 5.1875 C8.95513509 10.13867415 9.75678413 14.14780815 9.9375 19.75 C9.35742188 19.48445313 8.77734375 19.21890625 8.1796875 18.9453125 C4.79343533 17.41423479 1.46563939 15.92604646 -2.0625 14.75 C-7.34827391 12.98807536 -12.42220802 10.84352799 -17.0625 7.75 C-11.44504645 3.39360745 -6.90549336 1.69114123 0 0 Z " fill="#082E28" transform="translate(131.0625,57.25)"/>
<path d="M0 0 C2.78351989 1.39175995 2.88549451 2.92687852 3.9375 5.8125 C4.96223877 8.62119694 5.84638103 10.79842018 7.6640625 13.18359375 C8.10492188 13.78300781 8.54578125 14.38242188 9 15 C8.4375 17.25 8.4375 17.25 7 20 C6.33116796 21.33224844 5.66465939 22.66566492 5 24 C4.48179688 25.0209375 4.48179688 25.0209375 3.953125 26.0625 C2.8382781 28.32874617 1.88660749 30.63571336 1 33 C-3.01098209 29.32607523 -4.65162265 24.88920946 -5.29296875 19.5703125 C-5.5291227 12.35074888 -4.01967385 6.02951078 0 0 Z " fill="#072D27" transform="translate(55,94)"/>
<path d="M0 0 C4.8714008 4.63990862 7.10393385 8.99838278 7.5 15.6875 C7.36143601 18.95206761 7.19843934 19.75675178 5.0625 22.375 C-4.52568418 27.46260793 -4.52568418 27.46260793 -9.27734375 26.57421875 C-10.13005859 26.28998047 -10.13005859 26.28998047 -11 26 C-10.54625 25.360625 -10.0925 24.72125 -9.625 24.0625 C-8.19591829 21.36923063 -7.69892992 19.83736036 -7.1875 16.9375 C-5.99043759 10.77523091 -2.95080875 5.48405023 0 0 Z " fill="#072D27" transform="translate(156,113)"/>
<path d="M0 0 C0.969375 0.433125 1.93875 0.86625 2.9375 1.3125 C5.69331983 2.50226157 8.44741109 3.48284598 11.3125 4.375 C16.48262476 6.04191953 21.20653976 8.46817236 26 11 C21.82494243 16.26420302 16.07183623 17.40926226 9.75 18.625 C6.60102014 17.90932276 6.14389001 17.36348339 4.25 14.875 C1.24949043 10.08962139 -0.33529953 5.70009203 0 0 Z " fill="#072D27" transform="translate(82,144)"/>
<path d="M0 0 C-3.47123155 8.75737098 -7.15798915 17.39935642 -11 26 C-16.02903955 21.92240036 -17.98141401 17.3921468 -19 11 C-18.57823784 7.90337782 -18.18334163 7.17794923 -15.875 4.9375 C-10.68996602 1.44323797 -6.30700421 -0.46148811 0 0 Z " fill="#062D26" transform="translate(78,81)"/>
<path d="M0 0 C6.94936287 0.2527041 11.97393704 2.6535593 18 6 C18 6.66 18 7.32 18 8 C17.30132812 8.26554687 16.60265625 8.53109375 15.8828125 8.8046875 C14.97273438 9.15789062 14.06265625 9.51109375 13.125 9.875 C11.76761719 10.39707031 11.76761719 10.39707031 10.3828125 10.9296875 C7.87782993 11.88530895 7.87782993 11.88530895 6 14 C4.39448394 14.55941326 2.76516347 15.05224024 1.125 15.5 C-2.13234348 16.39455403 -5.02339931 17.39402009 -8 19 C-7.75428474 11.25996945 -5.5769989 5.5769989 0 0 Z " fill="#062C26" transform="translate(90,58)"/>
<path d="M0 0 C6.52778831 -0.69444557 10.61468044 1.38053879 16 5 C18 7 18 7 18.375 10.0625 C17.78590511 16.2479963 15.67009894 21.77148635 11 26 C7.55989026 19.52057 4.49152078 13.27507994 2.640625 6.15625 C1.98283076 3.94221084 1.0897818 2.03179658 0 0 Z " fill="#062D26" transform="translate(145,81)"/>
<path d="M0 0 C3.92323422 0.98080856 7.31697179 2.02413264 10.796875 4.12109375 C13.94265147 6.33410717 13.94265147 6.33410717 17.984375 5.99609375 C20.11640613 4.95122125 20.11640613 4.95122125 22.234375 3.55859375 C26.65156022 1.00012508 29.86455565 -0.00390625 34.984375 -0.00390625 C36.7109375 1.49609375 36.7109375 1.49609375 37.984375 2.99609375 C37.18773437 3.16625 36.39109375 3.33640625 35.5703125 3.51171875 C29.56834115 4.88443239 24.80680158 6.11136122 19.984375 9.99609375 C20.61085938 10.27324219 21.23734375 10.55039063 21.8828125 10.8359375 C22.70007813 11.19816406 23.51734375 11.56039062 24.359375 11.93359375 C25.17148438 12.29324219 25.98359375 12.65289062 26.8203125 13.0234375 C28.22121285 13.65308405 29.61062784 14.30922017 30.984375 14.99609375 C30.984375 15.65609375 30.984375 16.31609375 30.984375 16.99609375 C27.51495954 16.53786907 24.31042451 16.10477692 20.984375 14.99609375 C19.1746932 14.87729021 17.36041053 14.82089725 15.546875 14.80859375 C14.59941406 14.79441406 13.65195313 14.78023437 12.67578125 14.765625 C9.90704486 15.00271563 8.38879741 15.68318644 5.984375 16.99609375 C3.234375 17.12109375 3.234375 17.12109375 0.984375 16.99609375 C3.45835637 14.34539942 5.56079751 12.27993531 8.984375 10.99609375 C10.304375 10.99609375 11.624375 10.99609375 12.984375 10.99609375 C12.984375 10.33609375 12.984375 9.67609375 12.984375 8.99609375 C9.10839926 7.37562932 5.19148051 6.08915603 1.171875 4.87109375 C-0.57029297 4.34128906 -0.57029297 4.34128906 -2.34765625 3.80078125 C-3.22808594 3.53523438 -4.10851562 3.2696875 -5.015625 2.99609375 C-2.60249675 -0.0050436 -2.60249675 -0.0050436 0 0 Z " fill="#9F785D" transform="translate(95.015625,55.00390625)"/>
<path d="M0 0 C2.92627248 0.10090595 4.34450642 1.24272043 6.75 2.9375 C10.57061033 5.36211809 13.59758256 6.08915501 18 7 C13.42864589 11.57135411 6.90979068 12.2134917 0.6875 12.3125 C-3.2304461 12.29713551 -5.56654792 11.80595296 -9 10 C-11.33203812 9.9222654 -13.66839059 9.91032272 -16 10 C-15.67 9.01 -15.34 8.02 -15 7 C-12.3828125 5.9375 -12.3828125 5.9375 -9.125 5 C-5.17568021 3.85802801 -2.74992589 3.06420313 0 0 Z " fill="#9F765A" transform="translate(110,139)"/>
<path d="M0 0 C0.66 0.33 1.32 0.66 2 1 C1.25 8.75 1.25 8.75 -1 11 C-3.06628297 11.67924772 -5.1534662 12.29582057 -7.25 12.875 C-16.98044703 15.79734548 -23.02121738 20.53889854 -27.875 29.4375 C-28.24625 30.283125 -28.6175 31.12875 -29 32 C-29.99 32 -30.98 32 -32 32 C-32.33 31.34 -32.66 30.68 -33 30 C-29.43014221 21.649637 -23.33825613 14.56062693 -15.1171875 10.6171875 C-10.84368037 8.98755678 -7.60890129 8 -3 8 C-2.87625 6.865625 -2.7525 5.73125 -2.625 4.5625 C-2.315625 2.7990625 -2.315625 2.7990625 -2 1 C-1.34 0.67 -0.68 0.34 0 0 Z " fill="#E4E7E6" transform="translate(81,69)"/>
<path d="M0 0 C-1.125 1.9375 -1.125 1.9375 -3 4 C-3.845625 4.12375 -4.69125 4.2475 -5.5625 4.375 C-12.47321785 5.63149415 -18.26126832 9.56685919 -22.5 15.125 C-26.04306068 20.15897408 -26.04306068 20.15897408 -26.8125 26.0625 C-26.874375 27.031875 -26.93625 28.00125 -27 29 C-29.5 30.875 -29.5 30.875 -32 32 C-32.73238266 23.39450379 -29.02113037 16.51635776 -23.76953125 9.85546875 C-17.15610485 2.92086049 -9.54267648 -0.38170706 0 0 Z " fill="#9D765A" transform="translate(88,55)"/>
<path d="M0 0 C9.74769906 0.47166286 17.77416501 3.69654863 24.46484375 10.98828125 C29.46544977 17.54123825 31.6045582 23.82753614 32 32 C28.36252578 29.70264786 27.14252009 28.56057904 26.0625 24.3125 C25.92199219 23.6215625 25.78148437 22.930625 25.63671875 22.21875 C23.69480819 15.45184693 19.12804579 10.27428321 13.08984375 6.84375 C10.87868835 5.95102184 9.05734012 5.67393322 6.6875 5.5 C3 5 3 5 1 2.4375 C0.67 1.633125 0.34 0.82875 0 0 Z " fill="#9F775B" transform="translate(135,55)"/>
<path d="M0 0 C8.25547445 -0.6350365 8.25547445 -0.6350365 11.125 1.8125 C11.74375 2.534375 12.3625 3.25625 13 4 C17.65219853 6.36998793 21.81629624 7.47105064 27 8 C25.68 9.32 24.36 10.64 23 12 C18.46566397 10.64278377 14.1971409 9.26276037 10.125 6.8125 C7.16958216 4.74914096 7.16958216 4.74914096 4 5 C2.39057726 5.73718314 0.80940483 6.53718312 -0.75 7.375 C-4.81088423 9.47689462 -8.5619169 10.93871926 -13 12 C-13.99 10.68 -14.98 9.36 -16 8 C-14.78763672 7.72736328 -14.78763672 7.72736328 -13.55078125 7.44921875 C-12.48214844 7.19785156 -11.41351563 6.94648438 -10.3125 6.6875 C-9.25675781 6.44386719 -8.20101562 6.20023438 -7.11328125 5.94921875 C-4.02424372 5.00739175 -1.68182036 3.77627063 1 2 C0.67 1.34 0.34 0.68 0 0 Z " fill="#9D765B" transform="translate(106,154)"/>
<path d="M0 0 C2.4375 1.0625 2.4375 1.0625 5 3 C5.36526253 5.32854865 5.69350684 7.66298962 6 10 C8.94425033 16.51761398 13.69012066 22.16111815 20.34375 25 C22.54900304 25.7446309 24.7531588 26.39474627 27 27 C27.99 27.33 28.98 27.66 30 28 C30.33 28.99 30.66 29.98 31 31 C23.71101093 31.99395306 18.05344221 28.86564924 12 25 C4.76651296 18.72236661 0.78415088 11.18675727 0.078125 1.6875 C0.05234375 1.130625 0.0265625 0.57375 0 0 Z " fill="#9E765A" transform="translate(56,134)"/>
<path d="M0 0 C0.99 0.66 1.98 1.32 3 2 C4.11721127 8.8274022 1.8304677 12.74528937 -1.78515625 18.484375 C-3.18385046 20.84048356 -3.18385046 20.84048356 -2.83984375 23.0234375 C-1.83907912 25.37872542 -0.70881312 27.61901737 0.5 29.875 C2.41360138 33.60293814 3.66579537 36.76674138 4 41 C2.68 41.99 1.36 42.98 0 44 C-0.08636719 43.29875 -0.17273438 42.5975 -0.26171875 41.875 C-1.15546092 35.84019048 -2.50445856 31.77707225 -5.94140625 26.76953125 C-7.59673148 24.00251159 -7.61172691 22.12660419 -7 19 C-5.7260411 16.96166576 -4.38938077 14.96147874 -3 13 C-1.27002717 8.72059354 -0.54890577 4.57421472 0 0 Z " fill="#9E765B" transform="translate(163,88)"/>
<path d="M0 0 C2.32185961 2.32185961 2.5749226 3.67337279 3.375 6.8125 C4.57166737 11.08981874 6.21377151 13.5412336 9 17 C9.5625 19.875 9.5625 19.875 9 23 C7.79618323 24.659315 6.58605295 26.31546162 5.3125 27.921875 C2.81758016 31.87216475 2.00493039 36.48189833 1 41 C-0.32 39.68 -1.64 38.36 -3 37 C-2.23640129 35.0804396 -1.46381522 33.16445288 -0.6875 31.25 C-0.25824219 30.18265625 0.17101563 29.1153125 0.61328125 28.015625 C2 25 2 25 3.703125 22.75 C4.13109375 22.1725 4.5590625 21.595 5 21 C4.49113354 18.5908295 4.49113354 18.5908295 3 16 C2.33116796 14.66775156 1.66465939 13.33433508 1 12 C0.65453125 11.319375 0.3090625 10.63875 -0.046875 9.9375 C-1.1617219 7.67125383 -2.11339251 5.36428664 -3 3 C-2.01 2.01 -1.02 1.02 0 0 Z " fill="#9E765B" transform="translate(58,90)"/>
<path d="M0 0 C1.86434618 3.72869237 -0.29331995 7.743899 -1.5 11.52734375 C-5.22250591 20.14533269 -12.25055627 26.05156732 -20.4375 30.25 C-23.69025948 31.20202717 -26.63012576 31.13215193 -30 31 C-29.505 29.515 -29.505 29.515 -29 28 C-26.77734375 27.04296875 -26.77734375 27.04296875 -23.9375 26.1875 C-15.4230031 23.22066106 -10.74199727 20.01610607 -6.5625 11.875 C-5.29521841 9.16087649 -4.14542403 6.68986274 -3.52734375 3.7578125 C-3 2 -3 2 0 0 Z " fill="#A1785C" transform="translate(166,134)"/>
<path d="M0 0 C0.66 0 1.32 0 2 0 C5.91655978 6.57422534 8.54527524 12.27362379 7 20 C5.60549656 23.51030176 3.93182454 26.75729452 2 30 C1.34 30 0.68 30 0 30 C0.48578543 26.87709365 0.9986012 24.00419641 2 21 C2.12016328 18.85662235 2.17531664 16.70920876 2.1875 14.5625 C2.20167969 13.42941406 2.21585938 12.29632813 2.23046875 11.12890625 C2.004946 8.06714819 1.41553669 6.63524815 0 4 C0 2.68 0 1.36 0 0 Z " fill="#E0E1DF" transform="translate(149,95)"/>
<path d="M0 0 C0.28101562 0.58136719 0.56203125 1.16273437 0.8515625 1.76171875 C1.94526262 3.98013391 1.94526262 3.98013391 3.2109375 5.89453125 C4.44991058 7.9359265 5.37908468 9.6888152 6 12 C5.16759733 14.91340934 3.8591936 16.50476648 2 19 C1.34 19.99 0.68 20.98 0 22 C-2.86695351 16.26609298 -4.39370038 11.22915978 -2.3203125 4.9375 C-1.61130836 3.26289973 -0.8132617 1.62652339 0 0 Z " fill="#0B2F28" transform="translate(73,99)"/>
<path d="M0 0 C3.6875 1.5 3.6875 1.5 6 3 C5.01 3.66 4.02 4.32 3 5 C2.40703125 5.39960937 1.8140625 5.79921875 1.203125 6.2109375 C-0.87578509 7.44996792 -2.65343735 8.38542407 -5 9 C-7.88464875 8.14133996 -9.52534453 6.83124504 -12 5 C-12.66 4.67 -13.32 4.34 -14 4 C-13.67 3.01 -13.34 2.02 -13 1 C-9.08185342 -0.95907329 -4.28079274 -0.36124833 0 0 Z " fill="#0B2F28" transform="translate(116,69)"/>
<path d="M0 0 C-2.41016679 6.03290196 -5.11978145 9.99541464 -11 13 C-12.32227599 13.37480006 -13.65452011 13.71969169 -15 14 C-14.48682612 9.75644674 -13.79533545 5.89783744 -12 2 C-8.42301163 -0.27788314 -3.98420958 -1.99210479 0 0 Z " fill="#082D27" transform="translate(146,131)"/>
<path d="M0 0 C6.75 0.875 6.75 0.875 9 2 C10.93460941 2.1228777 12.87402904 2.17554888 14.8125 2.1875 C16.36904297 2.20876953 16.36904297 2.20876953 17.95703125 2.23046875 C21.06186161 1.99531472 23.15324357 1.19046178 26 0 C27.32 0 28.64 0 30 0 C29 3 29 3 26.5625 4.625 C19.4239827 7.3802172 13.10380445 7.71590135 5.91796875 4.96875 C3.43605221 3.71515468 1.72243394 2.17176454 0 0 Z " fill="#E7E8E6" transform="translate(96,148)"/>
<path d="M0 0 C0 1.32 0 2.64 0 4 C-8.261959 8.59225513 -8.261959 8.59225513 -13 8 C-13.103125 9.2375 -13.20625 10.475 -13.3125 11.75 C-13.75323723 15.25106758 -14.31721439 17.52358251 -17 20 C-17.99 20 -18.98 20 -20 20 C-19.26499764 17.79499292 -18.52734567 15.59184704 -17.76953125 13.39453125 C-16.90344975 10.85480638 -16.90344975 10.85480638 -16.3125 7.5625 C-15.879375 6.716875 -15.44625 5.87125 -15 5 C-11.1875 3.8125 -11.1875 3.8125 -9.03515625 3.43359375 C-5.64903463 2.71217436 -3.42380077 0 0 0 Z " fill="#E8ECEB" transform="translate(147,125)"/>
<path d="M0 0 C6.35522815 1.66446452 10.50372697 4.53838953 13.9375 10.1875 C14.288125 11.115625 14.63875 12.04375 15 13 C14.67 13.66 14.34 14.32 14 15 C10.00950417 14.15312058 6.49434626 13.13886976 3 11 C1.16319197 7.43412966 0.47166659 3.96473369 0 0 Z " fill="#0C2F29" transform="translate(131,76)"/>
<path d="M0 0 C0.33 0 0.66 0 1 0 C1.30959876 3.4055864 0.93636067 5.14053685 -0.5 8.3125 C-3.09030659 14.68033704 -2.28949421 19.56079752 0 26 C0.125 28.875 0.125 28.875 0 31 C-4.27063587 27.29878225 -5.69083214 24.05888806 -6.2578125 18.44921875 C-6.5234449 12.04747788 -5.65563515 7.32335192 -2 2 C-1.34 1.34 -0.68 0.68 0 0 Z " fill="#EFF2F1" transform="translate(73,94)"/>
<path d="M0 0 C3.92222087 0.52747108 7.4295516 1.25844315 11 3 C13.46516081 6.58190836 15 10.61395095 15 15 C9.74138393 13.53247923 5.69721941 11.83607023 2.80078125 6.99609375 C0 1.50263158 0 1.50263158 0 0 Z " fill="#0A2E27" transform="translate(77,130)"/>
<path d="M0 0 C1.8125 0.125 1.8125 0.125 4 1 C6.38482838 4.74758745 7.39145737 7.56348311 7 12 C7.60328125 12.10957031 8.2065625 12.21914062 8.828125 12.33203125 C17.24094389 14.00102596 17.24094389 14.00102596 20 17 C20 17.99 20 18.98 20 20 C15 18 15 18 12.5625 16.9375 C9.72285406 15.89860514 6.98906375 15.41707866 4 15 C3.87882813 14.41992188 3.75765625 13.83984375 3.6328125 13.2421875 C2.66264526 8.71971558 1.56602217 4.36249034 0 0 Z " fill="#EEEFEE" transform="translate(127,75)"/>
<path d="M0 0 C0.639375 0.28875 1.27875 0.5775 1.9375 0.875 C5.29640953 2.10888513 8.60719714 2.83356102 12.109375 3.53515625 C14 4 14 4 15 5 C15.34637071 6.40876827 15.65253669 7.82753854 15.9375 9.25 C16.66368006 12.67342027 17.55359537 15.7972469 19 19 C17.68 19 16.36 19 15 19 C14.32645501 17.56570999 13.66140299 16.12742943 13 14.6875 C12.62875 13.88699219 12.2575 13.08648437 11.875 12.26171875 C11 10 11 10 11 7 C9.9275 6.896875 8.855 6.79375 7.75 6.6875 C4.15065316 6.02761975 2.49996325 5.59996178 0 3 C0 2.01 0 1.02 0 0 Z " fill="#E5E9E8" transform="translate(77,126)"/>
<path d="M0 0 C0.99 0 1.98 0 3 0 C2.566875 0.9590625 2.566875 0.9590625 2.125 1.9375 C0.93430615 4.81127872 0.93430615 4.81127872 0.73828125 7.23046875 C0.42374472 9.73450631 0.07592892 11.71088373 -1 14 C-3.83873182 15.74024089 -6.76548635 16.32817472 -10 17 C-11.175625 17.391875 -12.35125 17.78375 -13.5625 18.1875 C-14.366875 18.455625 -15.17125 18.72375 -16 19 C-15.875 17.1875 -15.875 17.1875 -15 15 C-11.32115375 12.71094011 -9.38448044 12 -5 12 C-4.9175 11.13375 -4.835 10.2675 -4.75 9.375 C-3.88163826 5.46737219 -2.50959017 3.10008198 0 0 Z " fill="#E2E5E5" transform="translate(93,75)"/>
<path d="M0 0 C2.11576398 0.94705626 4.14300719 1.94079663 6.1484375 3.1015625 C6.1484375 3.7615625 6.1484375 4.4215625 6.1484375 5.1015625 C2.67902204 4.64333782 -0.52551299 4.21024567 -3.8515625 3.1015625 C-5.6612443 2.98275896 -7.47552697 2.926366 -9.2890625 2.9140625 C-10.23652344 2.89988281 -11.18398437 2.88570313 -12.16015625 2.87109375 C-14.92889264 3.10818438 -16.44714009 3.78865519 -18.8515625 5.1015625 C-21.6015625 5.2265625 -21.6015625 5.2265625 -23.8515625 5.1015625 C-17.31952886 -1.89704497 -9.15584592 -2.88471858 0 0 Z " fill="#EEF0F0" transform="translate(119.8515625,66.8984375)"/>
<path d="M0 0 C0.33 0 0.66 0 1 0 C1.09796875 0.59167969 1.1959375 1.18335937 1.296875 1.79296875 C2.25769801 6.87042139 3.2985201 10.17513744 7 14 C6.00441959 16.68040879 4.98481703 19.02368544 3.4375 21.4375 C1.82141162 24.31835321 1.37908032 26.73990924 1 30 C-0.5625 28.375 -0.5625 28.375 -2 26 C-1.81168788 21.57466524 -0.46050012 18.63726105 2 15 C1.319375 13.9275 0.63875 12.855 -0.0625 11.75 C-2.02678571 8.3125 -2.02678571 8.3125 -1.8125 5.8125 C-1.4103125 4.9153125 -1.4103125 4.9153125 -1 4 C-0.814375 3.2575 -0.62875 2.515 -0.4375 1.75 C-0.293125 1.1725 -0.14875 0.595 0 0 Z " fill="#9C7559" transform="translate(76,95)"/>
<path d="M0 0 C1.48156579 0.90033614 2.94903689 1.82646168 4.375 2.8125 C4.045 3.4725 3.715 4.1325 3.375 4.8125 C0.1984489 5.87135037 -2.22488011 6.01299266 -5.5625 6.0625 C-6.60277344 6.08828125 -7.64304687 6.1140625 -8.71484375 6.140625 C-11.94221419 5.77673357 -13.26213641 4.97608594 -15.625 2.8125 C-10.05078071 -1.04201334 -6.38373981 -3.28306619 0 0 Z " fill="#092D26" transform="translate(116.625,145.1875)"/>
<path d="M0 0 C0.99 0.33 1.98 0.66 3 1 C0.43676223 9.98819562 0.43676223 9.98819562 -2.94140625 12.3671875 C-6.54845076 13.76217709 -8.24595715 14.25134762 -12 13 C-8.83702458 7.12590279 -5.83588473 3.35023012 0 0 Z " fill="#0A2E28" transform="translate(89,76)"/>
<path d="M0 0 C1.48046875 1.09765625 1.48046875 1.09765625 3 3 C3.36328125 5.99609375 3.36328125 5.99609375 3.3125 9.4375 C3.30863281 10.57058594 3.30476562 11.70367187 3.30078125 12.87109375 C3.01771236 15.81574545 2.53360955 17.51323073 1 20 C0.34 19.01 -0.32 18.02 -1 17 C-1.804375 15.989375 -2.60875 14.97875 -3.4375 13.9375 C-4.51171875 12.1171875 -4.51171875 12.1171875 -5 10 C-3.83461656 6.34952951 -2.05024992 3.22460193 0 0 Z " fill="#0A2D27" transform="translate(149,100)"/>
<path d="M0 0 C0.66 0.33 1.32 0.66 2 1 C0.96134782 4.34676814 -0.04612953 5.02532602 -3.1875 6.75 C-6.82422724 8.16343391 -10.10320937 8.23857902 -14 8 C-14.33 8.99 -14.66 9.98 -15 11 C-15.33 10.34 -15.66 9.68 -16 9 C-16.66 9.99 -17.32 10.98 -18 12 C-17.25 7.25 -17.25 7.25 -15 5 C-13.22706859 4.43716463 -11.43100255 3.94544835 -9.625 3.5 C-6.81433077 2.80301464 -4.34610493 2.17973169 -1.7734375 0.84375 C-1.18820313 0.5653125 -0.60296875 0.286875 0 0 Z " fill="#E2E5E4" transform="translate(159,135)"/>
<path d="M0 0 C1.8125 0.125 1.8125 0.125 4 1 C6.28905989 4.67884625 7 6.61551956 7 11 C6.34 11 5.68 11 5 11 C4.67 12.32 4.34 13.64 4 15 C3.87882813 14.41992188 3.75765625 13.83984375 3.6328125 13.2421875 C2.66264526 8.71971558 1.56602217 4.36249034 0 0 Z " fill="#E4E6E5" transform="translate(127,75)"/>
<path d="M0 0 C0.99 0 1.98 0 3 0 C2.71125 0.639375 2.4225 1.27875 2.125 1.9375 C0.6752275 5.88410292 -0.15778062 9.8874607 -1 14 C-1.66 12.68 -2.32 11.36 -3 10 C-3.66 10.66 -4.32 11.32 -5 12 C-4.526508 7.02833396 -3.14907485 3.89003364 0 0 Z " fill="#DBDEDD" transform="translate(93,75)"/>
<path d="M0 0 C-0.99 0.66 -1.98 1.32 -3 2 C-3.66 2.66 -4.32 3.32 -5 4 C-10.53846154 7 -10.53846154 7 -13 7 C-12.4375 4.6875 -12.4375 4.6875 -11 2 C-4.12946429 -1.81696429 -4.12946429 -1.81696429 0 0 Z " fill="#E3E6E6" transform="translate(107,47)"/>
<path d="M0 0 C1.21236328 0.01353516 1.21236328 0.01353516 2.44921875 0.02734375 C3.37154297 0.04474609 3.37154297 0.04474609 4.3125 0.0625 C4.3125 1.0525 4.3125 2.0425 4.3125 3.0625 C0.0225 3.0625 -4.2675 3.0625 -8.6875 3.0625 C-6.88341097 -0.54567807 -3.60175697 -0.05219938 0 0 Z " fill="#F5F7F7" transform="translate(111.6875,45.9375)"/>
<path d="M0 0 C-0.99 0.33 -1.98 0.66 -3 1 C-3.61875 1.680625 -4.2375 2.36125 -4.875 3.0625 C-7 5 -7 5 -9.75 5.25 C-10.4925 5.1675 -11.235 5.085 -12 5 C-5.5 -1.96428571 -5.5 -1.96428571 0 0 Z " fill="#E4E8E7" transform="translate(108,67)"/>
<path d="M0 0 C0.66 0.33 1.32 0.66 2 1 C2.625 3.0625 2.625 3.0625 3 5 C2.34 5 1.68 5 1 5 C0.67 6.65 0.34 8.3 0 10 C-0.33 10 -0.66 10 -1 10 C-1.33 7.03 -1.66 4.06 -2 1 C-1.34 0.67 -0.68 0.34 0 0 Z " fill="#A88166" transform="translate(75,90)"/>
<path d="M0 0 C1 3 1 3 -0.4375 6.1875 C-1.2109375 7.5796875 -1.2109375 7.5796875 -2 9 C-2.99 9 -3.98 9 -5 9 C-4.5206753 4.68607774 -3.2542015 2.83430453 0 0 Z " fill="#F0F2F2" transform="translate(85,61)"/>
<path d="M0 0 C0.33 0 0.66 0 1 0 C1.36585366 4.51219512 1.36585366 4.51219512 -0.3125 6.75 C-2 8 -2 8 -5 9 C-3.75471468 5.55151758 -2.38532951 2.80016942 0 0 Z " fill="#E4E1DD" transform="translate(73,94)"/>
<path d="M0 0 C0.33 0 0.66 0 1 0 C1 1.98 1 3.96 1 6 C-1.31 6.33 -3.62 6.66 -6 7 C-5.67 6.01 -5.34 5.02 -5 4 C-4.01 3.67 -3.02 3.34 -2 3 C-1.34 2.01 -0.68 1.02 0 0 Z " fill="#F6F7F7" transform="translate(90,84)"/>
<path d="M0 0 C-2.3125 2.5 -2.3125 2.5 -5 5 C-5.99 5 -6.98 5 -8 5 C-7.8125 3.125 -7.8125 3.125 -7 1 C-2.66666667 -1.33333333 -2.66666667 -1.33333333 0 0 Z " fill="#E5E9E8" transform="translate(127,169)"/>
<path d="M0 0 C2.31 0 4.62 0 7 0 C5.515 1.98 5.515 1.98 4 4 C2.35 3.67 0.7 3.34 -1 3 C-0.67 2.01 -0.34 1.02 0 0 Z " fill="#A77E62" transform="translate(81,55)"/>
<path d="M0 0 C0.625 1.875 0.625 1.875 1 4 C0.34 4.66 -0.32 5.32 -1 6 C-1.99 6 -2.98 6 -4 6 C-2.25 1.125 -2.25 1.125 0 0 Z " fill="#EDF0EF" transform="translate(131,139)"/>
<path d="M0 0 C0 1.32 0 2.64 0 4 C-1.65 4.66 -3.3 5.32 -5 6 C-5 4.68 -5 3.36 -5 2 C-2 0 -2 0 0 0 Z " fill="#E0DFDB" transform="translate(147,125)"/>
<path d="M0 0 C0 0.99 0 1.98 0 3 C-1.32 3.33 -2.64 3.66 -4 4 C-4 3.34 -4 2.68 -4 2 C-5.32 1.67 -6.64 1.34 -8 1 C-5.07175348 0.02391783 -3.04386724 -0.08226668 0 0 Z " fill="#AE8367" transform="translate(100,72)"/>
<path d="M0 0 C0.99 0.33 1.98 0.66 3 1 C3 3.31 3 5.62 3 8 C2.67 7.01 2.34 6.02 2 5 C1.01 4.67 0.02 4.34 -1 4 C-0.67 2.68 -0.34 1.36 0 0 Z " fill="#AF8970" transform="translate(73,121)"/>
<path d="M0 0 C0.66 0.33 1.32 0.66 2 1 C1.67 3.64 1.34 6.28 1 9 C-1.62386487 5.93882432 -2 5.26826873 -2 1 C-1.34 0.67 -0.68 0.34 0 0 Z " fill="#DBDEDD" transform="translate(81,69)"/>
<path d="M0 0 C2.4375 0.375 2.4375 0.375 5 1 C5.33 1.66 5.66 2.32 6 3 C3.36 3 0.72 3 -2 3 C-1.34 2.01 -0.68 1.02 0 0 Z " fill="#AB8063" transform="translate(127,55)"/>
</svg>
